<svg width="72" height="72" viewBox="0 0 256 256" fill="none" xmlns="http://www.w3.org/2000/svg">
<path d="M113.431 112.886C113.524 113.164 113.618 113.44 113.712 113.712C113.44 113.618 113.164 113.524 112.886 113.431C102.904 110.104 89.2405 108.08 74.24 108.08C59.2394 108.08 45.576 110.104 35.5935 113.431C30.6127 115.092 26.4377 117.113 23.4668 119.454C20.5184 121.777 18.48 124.65 18.48 128C18.48 131.35 20.5184 134.223 23.4668 136.546C26.4377 138.887 30.6127 140.908 35.5935 142.569C45.576 145.896 59.2394 147.92 74.24 147.92C89.2405 147.92 102.904 145.896 112.886 142.569C113.164 142.476 113.44 142.382 113.712 142.287C113.618 142.56 113.524 142.836 113.431 143.113C110.104 153.096 108.08 166.759 108.08 181.76C108.08 196.761 110.104 210.424 113.431 220.406C115.092 225.387 117.113 229.562 119.454 232.533C121.777 235.482 124.65 237.52 128 237.52C131.35 237.52 134.223 235.482 136.546 232.533C138.887 229.562 140.908 225.387 142.569 220.406C145.896 210.424 147.92 196.761 147.92 181.76C147.92 166.759 145.896 153.096 142.569 143.113C142.476 142.836 142.382 142.56 142.287 142.287C142.56 142.382 142.836 142.476 143.113 142.569C153.096 145.896 166.759 147.92 181.76 147.92C196.761 147.92 210.424 145.896 220.406 142.569C225.387 140.908 229.562 138.887 232.533 136.546C235.482 134.223 237.52 131.35 237.52 128C237.52 124.65 235.482 121.777 232.533 119.454C229.562 117.113 225.387 115.092 220.406 113.431C210.424 110.104 196.761 108.08 181.76 108.08C166.759 108.08 153.096 110.104 143.113 113.431C142.836 113.524 142.56 113.618 142.287 113.712C142.382 113.44 142.476 113.164 142.569 112.886C145.896 102.904 147.92 89.2405 147.92 74.24C147.92 59.2394 145.896 45.576 142.569 35.5935C140.908 30.6127 138.887 26.4377 136.546 23.4668C134.223 20.5184 131.35 18.48 128 18.48C124.65 18.48 121.777 20.5184 119.454 23.4668C117.113 26.4377 115.092 30.6127 113.431 35.5935C110.104 45.576 108.08 59.2394 108.08 74.24C108.08 89.2405 110.104 102.904 113.431 112.886Z" fill="#0D0D0D" stroke="#FF618E" stroke-width="4"/>
<path d="M200.559 10H246V55.4023L157.156 119.385L145.972 127.44L157.099 135.573L246 200.553V246H200.604L136.121 156.259L128 144.958L119.879 156.259L55.3956 246H10V200.553L98.901 135.573L110.028 127.44L98.844 119.385L10 55.4023V10H55.4407L119.921 98.3933L128 109.468L136.079 98.3933L200.559 10Z" fill="#0D0D0D" stroke="#f2f2f2" stroke-width="20"/>
</svg>
