<svg width="38" height="38" viewBox="0 0 38 38" fill="none" xmlns="http://www.w3.org/2000/svg">
<path d="M25.6566 16.0708L22 19L25.959 21.9509C26.4587 21.9832 26.9738 22 27.5 22C32.1945 22 36 20.6567 36 19C36 17.3433 32.1945 16 27.5 16C26.8669 16 26.2501 16.0244 25.6566 16.0708Z" fill="#ff9bb5ff" fill-opacity="0.4"/>
<path d="M22 25.5L19 21.5L16.0873 25.4563C16.0303 26.1108 16 26.7954 16 27.5C16 32.1943 17.3431 36 19 36C20.6569 36 22 32.1943 22 27.5C22 26.9768 22.032 25.9971 22 25.5Z" fill="#ff9bb5ff" fill-opacity="0.4"/>
<path d="M12.5751 21.9099L16.5 19L12.3077 16.0708C11.8346 16.042 10.9965 16 10.5 16C5.80554 16 2 17.3433 2 19C2 20.6567 5.80554 22 10.5 22C11.2158 22 11.911 21.9688 12.5751 21.9099Z" fill="#ff9bb5ff" fill-opacity="0.4"/>
<path d="M22 10.5C22 10.8469 21.9927 11.189 21.9784 11.5251L19 16L16.0438 11.9561C16.015 11.4829 16 10.9966 16 10.5C16 5.80566 17.3431 2 19 2C20.6569 2 22 5.80566 22 10.5Z" fill="#ff9bb5ff" fill-opacity="0.4"/>
<path fill-rule="evenodd" clip-rule="evenodd" d="M0 0V9.51462L13.2795 19L0 28.4854V38H9.51462L19 24.7205L28.4854 38H38V28.4854L24.7205 19L38 9.51462V0H28.4854L19 13.2795L9.51462 0H0ZM19 21.5L19.8137 22.4188L29.5146 36H36V29.5146L22.4188 19.8137L21.5 19L22.4188 18.1863L36 8.48538V2H29.5146L19.8137 15.5812L19 16.5L18.1863 15.5812L8.48538 2H2V8.48538L15.5812 18.1863L16.5 19L15.5812 19.8137L2 29.5146V36H8.48538L18.1863 22.4188L19 21.5Z" fill="#ff9bb5ff"/>
</svg>
